<svg xmlns="http://www.w3.org/2000/svg"  viewBox="0 0 24 24" width="48px" height="48px" baseProfile="basic"><linearGradient id="1mKI-VmS2iKQtOoYDXP9Aa" x1="12" x2="12" y1="2" y2="22" gradientUnits="userSpaceOnUse"><stop offset="0" stop-color="#4df0ff"/><stop offset="1" stop-color="#00b5ff"/></linearGradient><path fill="url(#1mKI-VmS2iKQtOoYDXP9Aa)" d="M20,8.24V20c0,1.1-0.9,2-2,2H6c-1.1,0-2-0.9-2-2V4c0-1.1,0.9-2,2-2h7.76	c0.79,0,1.56,0.32,2.12,0.88l3.24,3.24C19.68,6.68,20,7.45,20,8.24z"/><linearGradient id="1mKI-VmS2iKQtOoYDXP9Ab" x1="12.5" x2="12.5" y1="2.659" y2="22.335" gradientUnits="userSpaceOnUse"><stop offset="0" stop-color="#fff"/><stop offset="1" stop-color="#a6eafb"/></linearGradient><path fill="url(#1mKI-VmS2iKQtOoYDXP9Ab)" d="M15,17c0,0.55-0.45,1-1,1H8c-0.55,0-1-0.45-1-1s0.45-1,1-1h6C14.55,16,15,16.45,15,17z M16,12	H8c-0.55,0-1,0.45-1,1s0.45,1,1,1h8c0.55,0,1-0.45,1-1S16.55,12,16,12z M17.78,7.7L14.3,4.22C13.82,3.75,13,4.08,13,4.76v3.48	C13,8.66,13.34,9,13.76,9h3.48C17.92,9,18.25,8.18,17.78,7.7z"/></svg>